<svg width="24" height="24" viewBox="0 0 24 24" fill="none" xmlns="http://www.w3.org/2000/svg">
<path d="M18.6203 4.17393C18.1649 4.78129 17.6146 5.3111 16.9904 5.7429C16.9904 5.90156 16.9904 6.06022 16.9904 6.22769C16.9954 9.10894 15.8445 11.8717 13.7957 13.8966C11.7469 15.9215 8.97167 17.0391 6.09206 16.999C4.4273 17.0045 2.78386 16.6244 1.29047 15.8883C1.20994 15.8532 1.15801 15.7735 1.15831 15.6856V15.5886C1.15831 15.4621 1.26087 15.3595 1.38738 15.3595C3.0238 15.3055 4.60184 14.7382 5.89824 13.7376C4.41705 13.7078 3.08436 12.8303 2.47104 11.4811C2.44006 11.4074 2.44971 11.3229 2.4965 11.2581C2.54328 11.1933 2.62044 11.1575 2.70011 11.1638C3.15028 11.209 3.60494 11.1671 4.03927 11.0404C2.40416 10.701 1.17556 9.34352 0.999727 7.68208C0.993477 7.60238 1.02919 7.52518 1.09398 7.47837C1.15876 7.43156 1.24324 7.42191 1.3169 7.4529C1.75569 7.64652 2.22936 7.7485 2.70892 7.75259C1.27618 6.81221 0.657326 5.02358 1.20236 3.39825C1.25862 3.24032 1.39379 3.12365 1.55819 3.09111C1.72259 3.05858 1.89198 3.11498 2.0041 3.23959C3.9375 5.29731 6.59402 6.52349 9.41354 6.6596C9.34132 6.37142 9.30579 6.07525 9.30781 5.77816C9.33418 4.22032 10.2981 2.83256 11.7482 2.26458C13.1984 1.69661 14.8478 2.06082 15.9243 3.18671C16.6581 3.04692 17.3675 2.80044 18.03 2.45511C18.0785 2.42481 18.14 2.42481 18.1886 2.45511C18.2189 2.50366 18.2189 2.56522 18.1886 2.61377C17.8677 3.34854 17.3256 3.96482 16.638 4.37666C17.2401 4.30683 17.8317 4.16477 18.4 3.95357C18.4479 3.921 18.5108 3.921 18.5586 3.95357C18.5987 3.9719 18.6287 4.00697 18.6405 4.04943C18.6524 4.09189 18.645 4.13743 18.6203 4.17393Z" fill="#222222"/>
</svg>
